<svg width="84" height="25" viewBox="0 0 84 25" fill="none" xmlns="http://www.w3.org/2000/svg">
<path fill-rule="evenodd" clip-rule="evenodd" d="M4.21551 3.06642C3.55952 3.65691 2.94911 4.32833 2.3843 5.08067C1.34116 6.51473 0.592751 8.18334 0.229879 9.99424C0.0870718 10.8132 0.0200347 11.6823 0.0250616 12.614C0.0330683 14.1059 0.117217 14.7192 0.521946 16.2366C0.789935 17.2412 1.0091 18.4045 1.0091 18.8217C1.0091 19.2389 0.759165 20.5928 0.453654 21.8302C-0.0964508 24.0591 -0.0989631 24.0843 0.194458 24.477C0.61363 25.0381 1.16562 25.0408 3.22521 24.4917C5.54134 23.8741 6.51126 23.8762 8.84575 24.5029C10.0495 24.8262 11.2376 24.9912 12.3909 25C17.3941 24.9604 21.6867 21.8899 23.5756 17.5075C23.7012 17.2159 23.8162 16.9186 23.9202 16.6159C24.2919 15.5328 24.521 14.3818 24.5847 13.186C24.6023 12.6679 24.5981 12.1343 24.5727 11.6168C24.151 5.4828 19.3713 0.568524 13.3569 0.0456047C12.9684 0.0181762 12.5737 0.0027543 12.1874 0C9.13785 0.0259612 6.35274 1.1779 4.21551 3.06642ZM1.15541 23.8584C1.08854 23.8584 1.25149 23.0679 1.5176 22.1015C1.78552 21.1286 1.94727 20.2183 2.00298 19.3644C2.07605 18.2446 1.96668 17.2222 1.67523 16.284C1.51813 15.7782 1.39054 15.2815 1.29244 14.7916L1.28168 14.7201C1.14247 14.0021 1.06948 13.2598 1.06948 12.5C1.06948 6.19656 6.09431 1.08655 12.2927 1.08655C18.4912 1.08655 23.516 6.19656 23.516 12.5C23.516 15.1198 22.6482 17.5334 21.1887 19.4597C20.8484 19.8601 20.4554 20.2896 20.0836 20.6601C18.9425 21.7979 18.4115 22.1967 17.3251 22.7321C16.3402 23.2174 15.486 23.5204 14.5531 23.682C13.8229 23.8339 13.067 23.9135 12.2927 23.9135C11.2107 23.9135 10.1645 23.7579 9.1745 23.4672C8.999 23.4229 8.82083 23.3733 8.63584 23.318C7.45713 22.9648 6.55406 22.8313 5.49186 22.9213C4.81247 22.9789 4.06802 23.128 3.14469 23.3696C2.11747 23.6385 1.22229 23.8584 1.15541 23.8584Z" fill="url(#paint0_angular_8753_15402)"/>
<path fill-rule="evenodd" clip-rule="evenodd" d="M5.7832 4.85621C5.25386 5.33269 4.7613 5.87448 4.30554 6.48155C3.46381 7.63873 2.8599 8.98518 2.56709 10.4464C2.45185 11.1073 2.39776 11.8086 2.40181 12.5604C2.40828 13.7642 2.47618 14.2591 2.80276 15.4836C3.01901 16.2942 3.19586 17.2329 3.19586 17.5695C3.19586 17.9062 2.99418 18.9987 2.74766 19.9972C2.30376 21.7957 2.30174 21.8161 2.53851 22.133C2.87675 22.5857 3.32216 22.5879 4.9841 22.1448C6.85304 21.6464 7.63569 21.6481 9.51946 22.1539C10.4908 22.4147 11.4495 22.5479 12.3801 22.555C16.4174 22.5231 19.8811 20.0453 21.4053 16.5091C21.5067 16.2738 21.5995 16.0339 21.6834 15.7896C21.9834 14.9156 22.1682 13.9868 22.2196 13.022C22.2338 12.6039 22.2305 12.1733 22.21 11.7557C21.8697 6.80604 18.0128 2.84059 13.1596 2.41864C12.8462 2.3965 12.5277 2.38406 12.2159 2.38184C9.75515 2.40278 7.50778 3.33231 5.7832 4.85621Z" fill="black"/>
<path d="M34.5315 12.38L36.8675 11.964L38.9475 15.82C39.0435 15.9907 39.1448 16.124 39.2515 16.22C39.3581 16.3053 39.4755 16.364 39.6035 16.396C39.7421 16.428 39.8915 16.444 40.0515 16.444H40.1955V17.5H37.0275L34.5315 12.38ZM33.0115 16.284C33.0115 16.316 33.0435 16.3427 33.1075 16.364C33.1715 16.3747 33.2515 16.3907 33.3475 16.412C33.4541 16.4227 33.5715 16.4333 33.6995 16.444C33.8275 16.444 33.9555 16.444 34.0835 16.444H34.2915V17.5H29.2515V16.444H29.4115C29.7315 16.444 29.9928 16.4067 30.1955 16.332C30.4088 16.2573 30.5155 16.1027 30.5155 15.868V7.772C30.5155 7.53733 30.4088 7.38267 30.1955 7.308C29.9928 7.23333 29.7315 7.196 29.4115 7.196H29.2515V6.14H34.8995C35.7955 6.14 36.5528 6.268 37.1715 6.524C37.8008 6.78 38.2808 7.148 38.6115 7.628C38.9421 8.09733 39.1075 8.668 39.1075 9.34C39.1075 9.92667 38.9741 10.4493 38.7075 10.908C38.4408 11.356 38.0515 11.724 37.5395 12.012C37.0381 12.3 36.4195 12.492 35.6835 12.588C35.5981 12.6307 35.5128 12.668 35.4275 12.7C35.3421 12.7213 35.2515 12.7427 35.1555 12.764C35.0701 12.7853 34.9795 12.8013 34.8835 12.812H32.6915V11.692H34.4675C34.9368 11.692 35.3208 11.6013 35.6195 11.42C35.9288 11.228 36.1528 10.9613 36.2915 10.62C36.4408 10.2787 36.5155 9.87333 36.5155 9.404C36.5155 8.956 36.4408 8.57733 36.2915 8.268C36.1528 7.948 35.9341 7.708 35.6355 7.548C35.3475 7.37733 34.9848 7.292 34.5475 7.292H33.0115V16.284ZM43.3378 13.324C43.3378 13.868 43.3912 14.3427 43.4978 14.748C43.6045 15.1427 43.7645 15.468 43.9778 15.724C44.1912 15.9693 44.4525 16.156 44.7618 16.284C45.0712 16.4013 45.4232 16.46 45.8178 16.46C46.2232 16.46 46.5752 16.3907 46.8738 16.252C47.1725 16.1027 47.4285 15.916 47.6418 15.692C47.8658 15.4573 48.0578 15.212 48.2178 14.956L49.1778 15.66C48.9645 16.0653 48.6872 16.4227 48.3458 16.732C48.0152 17.0307 47.6152 17.2653 47.1458 17.436C46.6872 17.596 46.1538 17.676 45.5458 17.676C44.6392 17.676 43.8392 17.5053 43.1458 17.164C42.4525 16.8227 41.9138 16.3267 41.5298 15.676C41.1458 15.0253 40.9538 14.236 40.9538 13.308C40.9538 12.4227 41.1352 11.6493 41.4978 10.988C41.8712 10.316 42.3832 9.79333 43.0338 9.42C43.6845 9.04667 44.4258 8.86 45.2578 8.86C45.9298 8.86 46.5112 8.96133 47.0018 9.164C47.5032 9.36667 47.9192 9.67067 48.2498 10.076C48.5805 10.4813 48.8312 10.988 49.0018 11.596C49.1725 12.204 49.2578 12.9187 49.2578 13.74H42.8738V12.668H47.3858L47.0018 13.084C46.9912 12.508 46.9485 12.0227 46.8738 11.628C46.8098 11.2333 46.7085 10.924 46.5698 10.7C46.4418 10.4653 46.2712 10.2947 46.0578 10.188C45.8445 10.0813 45.5885 10.028 45.2898 10.028C44.9912 10.028 44.7245 10.092 44.4898 10.22C44.2552 10.348 44.0472 10.5453 43.8658 10.812C43.6952 11.068 43.5618 11.404 43.4658 11.82C43.3805 12.236 43.3378 12.7373 43.3378 13.324ZM49.9898 10.172V9.116H50.1018C50.3898 9.116 50.6352 9.09467 50.8378 9.052C51.0512 9.00933 51.2112 8.924 51.3178 8.796C51.4245 8.668 51.4778 8.48133 51.4778 8.236L52.9498 9.036H56.1978V10.172H49.9898ZM53.7498 14.748C53.7498 15.164 53.8032 15.4947 53.9098 15.74C54.0165 15.9747 54.1712 16.14 54.3738 16.236C54.5872 16.332 54.8378 16.38 55.1258 16.38C55.3712 16.38 55.5952 16.3587 55.7978 16.316C56.0112 16.2733 56.1605 16.2413 56.2458 16.22V17.42C56.1498 17.4627 56.0112 17.5 55.8298 17.532C55.6592 17.5747 55.4618 17.6067 55.2378 17.628C55.0245 17.66 54.7952 17.676 54.5498 17.676C53.9632 17.676 53.4298 17.596 52.9498 17.436C52.4698 17.2653 52.0858 16.9773 51.7978 16.572C51.5205 16.156 51.3818 15.58 51.3818 14.844V9.308L51.4778 9.18V6.652H53.7498V14.748ZM59.4252 7.692C58.9985 7.692 58.6572 7.58533 58.4012 7.372C58.1452 7.15867 58.0172 6.85467 58.0172 6.46C58.0172 6.06533 58.1452 5.76133 58.4012 5.548C58.6572 5.33467 58.9985 5.228 59.4252 5.228C59.8412 5.228 60.1772 5.33467 60.4332 5.548C60.6892 5.76133 60.8172 6.06533 60.8172 6.46C60.8172 6.85467 60.6892 7.15867 60.4332 7.372C60.1772 7.58533 59.8412 7.692 59.4252 7.692ZM60.6892 9.036V15.868C60.6892 16.1347 60.7852 16.316 60.9772 16.412C61.1692 16.508 61.4199 16.556 61.7292 16.556H61.7612V17.5H57.2332V16.556H57.2652C57.5852 16.556 57.8412 16.508 58.0332 16.412C58.2252 16.316 58.3212 16.1347 58.3212 15.868V10.684C58.3212 10.492 58.2412 10.364 58.0812 10.3C57.9319 10.2253 57.6972 10.156 57.3772 10.092L57.2332 10.06V9.036H60.6892ZM71.9027 13.276C71.9027 14.1613 71.716 14.9347 71.3427 15.596C70.9694 16.2573 70.4414 16.7693 69.7587 17.132C69.076 17.4947 68.2654 17.676 67.3267 17.676C66.3987 17.676 65.588 17.4947 64.8947 17.132C64.212 16.7693 63.684 16.2573 63.3107 15.596C62.9374 14.9347 62.7507 14.1613 62.7507 13.276C62.7507 12.604 62.8574 12.0013 63.0707 11.468C63.284 10.924 63.588 10.46 63.9827 10.076C64.388 9.68133 64.868 9.38267 65.4227 9.18C65.988 8.96667 66.6227 8.86 67.3267 8.86C68.0307 8.86 68.66 8.96667 69.2147 9.18C69.78 9.38267 70.26 9.68133 70.6547 10.076C71.06 10.46 71.3694 10.924 71.5827 11.468C71.796 12.0013 71.9027 12.604 71.9027 13.276ZM65.2147 13.276C65.2147 13.9907 65.2894 14.588 65.4387 15.068C65.5987 15.548 65.8334 15.9107 66.1427 16.156C66.4627 16.3907 66.8574 16.508 67.3267 16.508C67.8067 16.508 68.2014 16.3907 68.5107 16.156C68.82 15.9107 69.0547 15.548 69.2147 15.068C69.3747 14.588 69.4547 13.9907 69.4547 13.276C69.4547 12.5613 69.3747 11.9693 69.2147 11.5C69.0547 11.02 68.82 10.6627 68.5107 10.428C68.2014 10.1827 67.8067 10.06 67.3267 10.06C66.8574 10.06 66.4627 10.1827 66.1427 10.428C65.8334 10.6627 65.5987 11.02 65.4387 11.5C65.2894 11.9693 65.2147 12.5613 65.2147 13.276ZM73.077 17.5V16.556H73.109C73.3223 16.556 73.5036 16.5347 73.653 16.492C73.813 16.4493 73.9356 16.3747 74.021 16.268C74.1063 16.1613 74.149 16.0173 74.149 15.836V10.684C74.149 10.556 74.117 10.46 74.053 10.396C73.989 10.3213 73.8876 10.2627 73.749 10.22C73.6103 10.1773 73.4343 10.1347 73.221 10.092L73.077 10.06V9.036H76.277L76.405 10.892L76.533 10.94V16.412C76.533 16.444 76.581 16.4707 76.677 16.492C76.773 16.5133 76.8903 16.5293 77.029 16.54C77.1676 16.5507 77.2903 16.556 77.397 16.556H77.461V17.5H73.077ZM83.125 17.5H78.741V16.556H78.773C78.8903 16.556 79.0183 16.5507 79.157 16.54C79.3063 16.5293 79.429 16.5133 79.525 16.492C79.621 16.4707 79.669 16.444 79.669 16.412V11.564C79.669 11.276 79.6316 11.0413 79.557 10.86C79.493 10.668 79.381 10.5293 79.221 10.444C79.0716 10.348 78.8636 10.3 78.597 10.3C78.309 10.3 78.0263 10.3693 77.749 10.508C77.4716 10.6467 77.205 10.86 76.949 11.148C76.693 11.4253 76.437 11.7773 76.181 12.204L76.197 10.988C76.453 10.54 76.741 10.1613 77.061 9.852C77.3916 9.532 77.7543 9.28667 78.149 9.116C78.5543 8.94533 78.9916 8.86 79.461 8.86C79.9943 8.86 80.453 8.956 80.837 9.148C81.221 9.34 81.5196 9.63333 81.733 10.028C81.9463 10.412 82.053 10.892 82.053 11.468V15.836C82.053 16.0173 82.0956 16.1613 82.181 16.268C82.2663 16.3747 82.3836 16.4493 82.533 16.492C82.693 16.5347 82.8743 16.556 83.077 16.556H83.125V17.5Z" fill="black"/>
<defs>
<radialGradient id="paint0_angular_8753_15402" cx="0" cy="0" r="1" gradientUnits="userSpaceOnUse" gradientTransform="translate(12.2977 12.5) rotate(177.49) scale(17.4189 17.5957)">
<stop offset="0.0647736" stop-color="#EEAF4C"/>
<stop offset="0.189249" stop-color="#E88754"/>
<stop offset="0.403621" stop-color="#E9496F"/>
<stop offset="0.517054" stop-color="#E96FBE"/>
<stop offset="0.66207" stop-color="#DD99F8"/>
<stop offset="0.823777" stop-color="#66B5F9"/>
<stop offset="0.900541" stop-color="#7BC7EF"/>
</radialGradient>
</defs>
</svg>